<svg width="453" height="453" fill="none" xmlns="http://www.w3.org/2000/svg"><path d="m306.102 339.474 24.367-8.036-16.963-51.435-24.367 8.036 16.963 51.435Z" fill="#EDEDED"/><path d="m292.866 299.28 27.236.669-6.58-19.957-24.366 8.035 3.71 11.253Zm13.236 40.194 24.367-8.036-8.098-24.555-24.367 8.036 8.098 24.555Z" fill="#424242"/><path d="M344.155 337.807c-5.12-7.449-6.592-12.498-13.081-16.766l-.565-.373c-2.075-1.366-4.839.119-4.849 2.604l-.012 4.159c-.012 4.041-3.947 4.918-3.991 4.947-2.275.751-3.537-.284-9.023-1.516l-1.556-4.72-5.301-2.446-4.828 1.594-1.823 6.547-14.65 16.072-19.562 5.239-4.305 5.992 6.906 6.432 30.279 4.762 19.424-11.315 26.937-21.212Z" fill="#3FB700"/><path d="m350.15 340.475-5.992-2.663-29.086 19.649-22.815 8.971-17.218-2.236-14.449-5.073-.711 4.757 1.225 3.582 9.865 6.99s6.227 1.079 18.544 2.917c0 0 20.503-5.987 25.641-7.697l1.867-3.598 4.226-1.393 3.611 1.793a2929.795 2929.795 0 0 1 20.143-6.642l10.554-9.482-5.405-9.875Z" fill="#424242"/><path d="m335.865 326.577-.433-1.109c-.37-.951-3.611-9.349-3.475-11.658a4.614 4.614 0 0 1 1.546-3.199 4.626 4.626 0 0 1 3.355-1.166 4.61 4.61 0 0 1 3.198 1.547 4.604 4.604 0 0 1 1.166 3.354c-.133 2.312-4.325 10.277-4.802 11.179l-.555 1.052Zm.721-16.05c-.872 0-1.702.314-2.356.899a3.536 3.536 0 0 0-1.186 2.448c-.089 1.536 1.835 7.034 2.974 10.073 1.482-2.885 4.028-8.124 4.117-9.66a3.53 3.53 0 0 0-.894-2.569 3.534 3.534 0 0 0-2.448-1.186c-.069-.002-.138-.005-.207-.005Zm-4.085 3.315h.005-.005Zm-30.535 24.277a.544.544 0 0 1-.153-.022l-6.199-1.825a.542.542 0 0 1-.368-.677.54.54 0 0 1 .676-.368l6.2 1.825a.543.543 0 0 1-.156 1.067Zm-3.394 4.366a.534.534 0 0 1-.153-.022l-6.2-1.825a.546.546 0 0 1 .309-1.045l6.199 1.825a.542.542 0 0 1 .368.677.547.547 0 0 1-.523.39Zm-3.399 4.368a.546.546 0 0 1-.153-.023l-6.199-1.825a.545.545 0 0 1 .308-1.045l6.2 1.826a.542.542 0 0 1 .368.676.55.55 0 0 1-.524.391Zm-14.179 21.873a.55.55 0 0 1-.433-.212l-13.327-17.381a.545.545 0 0 1 .864-.662l13.328 17.381a.544.544 0 0 1-.432.874Z" fill="#0A0A0A"/><path d="m370.581 370.67 27.052-4.615-9.369-54.912-27.052 4.616 9.369 54.911Z" fill="#EDEDED"/><path d="m363.26 327.63 28.896 6.207-3.871-22.689-27.051 4.617 2.026 11.865Zm7.321 43.04 27.052-4.615-4.596-26.935-27.051 4.616 4.595 26.934Z" fill="#424242"/><path d="m397.526 355.71.504.452c5.78 5.187 6.484 10.401 10.438 18.527l-29.797 16.963-47.421 8.702-8.934-3.384 1.594-7.205 24.798-13.169 16.119-14.516 2.778-6.205 5.012-.854 4.876 3.208.834 4.901c5.242 2.035 6.336 3.245 8.697 2.842.049-.024 4.068-.303 4.683-4.297l.632-4.113c.383-2.457 3.337-3.512 5.187-1.852Z" fill="#3FB700"/><path d="m322.316 396.974 15.312.311 39.151-7.493 31.689-15.097 5.53 3.527 3.866 10.572-11.849 7.802s-9.22 1.532-20.905 3.567l-3.305-2.309-4.384.748-2.381 3.28c-18.265 3.169-38.067 6.496-38.067 6.496l-11.564-3.636-2.28-3.021-.813-4.747Z" fill="#424242"/><path d="m401.945 362.355-.262-1.161c-.225-.996-2.179-9.781-1.702-12.046a4.608 4.608 0 0 1 2.006-2.932 4.62 4.62 0 0 1 3.492-.655 4.615 4.615 0 0 1 2.932 2.006 4.614 4.614 0 0 1 .654 3.493c-.476 2.265-5.806 9.519-6.412 10.339l-.708.956Zm2.571-15.806c-.682 0-1.349.198-1.932.578a3.526 3.526 0 0 0-1.536 2.243c-.319 1.507.766 7.23 1.44 10.401 1.897-2.63 5.194-7.432 5.513-8.939a3.529 3.529 0 0 0-.502-2.672 3.524 3.524 0 0 0-2.983-1.611Zm-4.002 2.71h.005-.005Zm-33.727 19.467a.553.553 0 0 1-.229-.052l-5.857-2.729a.546.546 0 0 1 .46-.988l5.856 2.729a.546.546 0 0 1-.23 1.04Zm-4.011 3.812a.539.539 0 0 1-.23-.052l-5.856-2.729a.547.547 0 0 1-.265-.724.547.547 0 0 1 .724-.264l5.856 2.729a.547.547 0 0 1-.229 1.04Zm-4.008 3.813a.554.554 0 0 1-.23-.052l-5.856-2.729a.545.545 0 0 1 .459-.988l5.856 2.729a.547.547 0 0 1-.229 1.04Z" fill="#0A0A0A"/><path d="m360.799 129.242-5.616 36.481-12.182 57.021a128.777 128.777 0 0 0 1.391 59.642l16.407 62.413h41.076l-15.981-84.373 15.973-94.666h.008v-36.518h-41.076Z" fill="#FFCA00"/><path d="M401.877 345.342h-41.075a.543.543 0 0 1-.526-.408l-16.411-62.413c-5.122-19.48-5.604-40.193-1.395-59.894l12.182-57.021 5.611-36.449a.547.547 0 0 1 .539-.462h41.075c.301 0 .543.245.543.544v36.518c0 .059-.01.116-.027.168l-15.943 94.49 15.96 84.277a.546.546 0 0 1-.116.45.532.532 0 0 1-.417.2Zm-40.655-1.09h39.998l-15.857-83.726a.539.539 0 0 1-.003-.192l15.973-94.656v-35.891h-40.065l-5.547 36.019-12.187 57.051c-4.174 19.535-3.695 40.07 1.383 59.39l16.305 62.005Z" fill="#0A0A0A"/><path d="m381.35 172.911 3.715-36.328-40.863-4.177-.592 5.805-63.801 67.377a37.982 37.982 0 0 0-9.216 35.53l17.769 69.421 39.902.417-9.793-73.249 53.266-65.779 9.613.983Z" fill="#FFCA00"/><path d="m350.145 148.533 51.73-10.672v-3.236h-51.73v13.908Z" fill="#424242"/><path d="M446.23 103.187 328.584 28.696c-6.599-4.18-15.338-2.216-19.517 4.384-4.179 6.6-2.216 15.338 4.384 19.517l30.422 19.264v65.984h61.658v-26.942l25.566 16.188c6.6 4.179 15.338 2.216 19.518-4.384 4.176-6.6 2.215-15.339-4.385-19.52Z" fill="#8633FF"/><path d="M381.181 59.405c7.571 0 13.708-6.012 13.708-13.429 0-7.417-6.137-13.43-13.708-13.43-7.571 0-13.708 6.013-13.708 13.43s6.137 13.43 13.708 13.43Z" fill="#0A0A0A"/><path d="m382.85 68.844-10.577 5.165V54.617h10.577v14.227Z" fill="#EDEDED"/><path d="M382.85 58.628v-4.01h-10.577v8.851c.954.19 2.858.43 5.042-.291 3.418-1.126 5.098-3.801 5.535-4.55Z" fill="#0A0A0A"/><path d="M376.128 60.9c4.698 0 8.506-4.21 8.506-9.403 0-5.193-3.808-9.403-8.506-9.403s-8.507 4.21-8.507 9.403c0 5.193 3.809 9.403 8.507 9.403Z" fill="#EDEDED"/><path d="M379.765 55.578a5.325 5.325 0 0 1-3.075 1.383c-2.662.272-5.063-1.46-5.725-3.969l8.8 2.586Zm-96.488 316.256 93.873 32.801V83.095l-93.873-32.798v321.537Zm-187.717-.039L1.687 404.594V83.056L95.56 50.258v321.537Z" fill="#fff"/><path d="m95.559 371.795 93.872 32.799V83.056L95.559 50.258v321.537Z" fill="#fff"/><path d="m283.279 371.834-93.873 32.801V83.095l93.873-32.798v321.537Z" fill="#fff"/><path d="M377.153 405.184a.553.553 0 0 1-.18-.03L283.1 372.353a.544.544 0 0 1-.366-.513V50.302a.543.543 0 0 1 .724-.514l93.873 32.801a.548.548 0 0 1 .365.514V404.64a.552.552 0 0 1-.229.445.547.547 0 0 1-.314.099Zm-93.327-33.732 92.784 32.42V83.488l-92.784-32.42v320.384Z" fill="#0A0A0A"/><path d="M377.152 328.557a.54.54 0 0 1-.356-.134l-94.505-81.948-103.209 41.799a.544.544 0 0 1-.699-.276l-83.667-181.27-90.492 31.351a.546.546 0 0 1-.358-1.03l90.956-31.511a.544.544 0 0 1 .672.286l83.657 181.245 103.036-41.73a.55.55 0 0 1 .561.094l94.757 82.168a.544.544 0 0 1-.353.956Z" fill="#8633FF"/><path d="M131.793 186.306a.544.544 0 0 1-.543-.544V65.864a.544.544 0 0 1 1.087 0v119.898a.543.543 0 0 1-.544.544ZM4.048 358.858a.545.545 0 0 1-.49-.783l44.524-92.111V122.122a.543.543 0 1 1 1.087 0V266.09a.56.56 0 0 1-.055.237L4.54 358.55a.545.545 0 0 1-.491.308Zm91.512-37.023a.556.556 0 0 1-.372-.145.546.546 0 0 1-.025-.771l66.155-70.707a.546.546 0 0 1 .795.746l-66.155 70.707a.552.552 0 0 1-.397.17Zm151.585-61.172a.544.544 0 0 1-.543-.544V62.926a.543.543 0 1 1 1.086 0v197.191a.544.544 0 0 1-.543.546Z" fill="#8633FF"/><path d="M1.686 405.139a.546.546 0 0 1-.546-.546V83.055c0-.232.146-.437.366-.513L95.38 49.74a.544.544 0 0 1 .724.514v321.537a.543.543 0 0 1-.366.514L1.864 405.109a.542.542 0 0 1-.178.03ZM2.23 83.443v320.384l92.783-32.42V51.023L2.23 83.443Zm93.33 288.352h.004-.005Z" fill="#0A0A0A"/><path d="M189.43 405.137a.557.557 0 0 1-.18-.03l-93.873-32.801a.544.544 0 0 1-.365-.513V50.255a.543.543 0 0 1 .724-.514L189.61 82.54a.545.545 0 0 1 .365.514V404.59a.551.551 0 0 1-.546.546Zm-93.329-33.732 92.783 32.42V83.441l-92.783-32.42v320.384Z" fill="#0A0A0A"/><path d="M189.405 405.178a.547.547 0 0 1-.546-.546V83.094c0-.232.146-.437.366-.513l93.873-32.801a.544.544 0 0 1 .723.514V371.83a.543.543 0 0 1-.365.514l-93.873 32.801a.496.496 0 0 1-.178.032Zm.544-321.696v320.384l92.783-32.42V51.062l-92.783 32.42Zm93.329 288.352h.005-.005Z" fill="#0A0A0A"/><path d="M58.346 120.273 21.539 56.187C10.325 29.808 29.685.547 58.346.547c28.664 0 48.021 29.264 36.807 55.64l-36.807 64.086Z" fill="#8633FF"/><path d="M58.345 120.815a.541.541 0 0 1-.471-.274L21.066 56.458l-.03-.057a40.44 40.44 0 0 1 3.498-38.227A40.437 40.437 0 0 1 58.345 0a40.443 40.443 0 0 1 33.811 18.174A40.442 40.442 0 0 1 95.654 56.4a.25.25 0 0 1-.03.057L58.817 120.54a.541.541 0 0 1-.472.274Zm-36.318-64.87 36.318 63.232 36.318-63.233a39.346 39.346 0 0 0-3.415-37.168A39.351 39.351 0 0 0 58.345 1.092a39.355 39.355 0 0 0-32.902 17.682 39.351 39.351 0 0 0-3.416 37.17Z" fill="#0A0A0A"/><path d="M58.343 70.546c16.454 0 29.793-13.339 29.793-29.793S74.797 10.961 58.343 10.961 28.551 24.299 28.551 40.753s13.338 29.793 29.792 29.793Z" fill="#fff"/><path d="M70.641 49.001H47.496a.546.546 0 0 1-.541-.477l-1.872-14.8a.546.546 0 0 1 .538-.615h31.262a.544.544 0 0 1 .502.759l-6.245 14.8a.535.535 0 0 1-.499.333Zm-22.664-1.09h22.304l5.784-13.71H46.242l1.736 13.71Z" fill="#0A0A0A"/><path d="M45.624 34.205a.543.543 0 0 1-.538-.472l-1.193-8.81h-5.88a.543.543 0 0 1 0-1.087h6.357c.272 0 .504.203.54.472l1.258 9.282a.544.544 0 0 1-.467.612c-.027.003-.052.003-.077.003Zm3.83 23.432c-1.815 0-3.29-1.423-3.29-3.174s1.477-3.174 3.29-3.174 3.29 1.423 3.29 3.174-1.475 3.174-3.29 3.174Zm0-5.259c-1.215 0-2.2.936-2.2 2.085 0 1.148.987 2.085 2.2 2.085 1.215 0 2.2-.937 2.2-2.085 0-1.149-.985-2.085-2.2-2.085Zm18.109 5.259c-1.815 0-3.29-1.423-3.29-3.174s1.478-3.174 3.29-3.174c1.816 0 3.29 1.423 3.29 3.174s-1.474 3.174-3.29 3.174Zm0-5.259c-1.215 0-2.2.936-2.2 2.085 0 1.148.988 2.085 2.2 2.085 1.213 0 2.201-.937 2.201-2.085 0-1.149-.988-2.085-2.2-2.085Zm-8.413-3.374h-.037a.545.545 0 0 1-.506-.58l1.01-14.8a.547.547 0 0 1 .58-.507c.3.02.526.28.507.58l-1.01 14.8a.545.545 0 0 1-.544.507Zm6.14.001a.544.544 0 0 1-.536-.637l2.594-14.8a.544.544 0 1 1 1.072.188l-2.594 14.8a.545.545 0 0 1-.536.449ZM52.934 49a.545.545 0 0 1-.543-.519l-.734-14.8a.544.544 0 0 1 .516-.57.536.536 0 0 1 .57.516l.734 14.8a.544.544 0 0 1-.516.57c-.01.003-.017.003-.027.003Z" fill="#0A0A0A"/><path d="m318.912 252.319-36.807-64.085c-11.213-26.379 8.146-55.64 36.807-55.64 28.662 0 48.021 29.264 36.808 55.64l-36.808 64.085Z" fill="#8633FF"/><path d="M318.912 252.862a.542.542 0 0 1-.472-.274l-36.807-64.083-.03-.057a40.44 40.44 0 0 1 3.498-38.227 40.442 40.442 0 0 1 33.811-18.174 40.436 40.436 0 0 1 33.811 18.174 40.44 40.44 0 0 1 3.497 38.227.235.235 0 0 1-.029.057l-36.808 64.085a.542.542 0 0 1-.471.272Zm-36.318-64.871 36.318 63.233 36.318-63.233a39.348 39.348 0 0 0-3.416-37.168 39.35 39.35 0 0 0-32.902-17.684 39.354 39.354 0 0 0-32.902 17.684 39.34 39.34 0 0 0-3.416 37.168Z" fill="#0A0A0A"/><path d="M339.976 193.863c11.635-11.634 11.635-30.498 0-42.132-11.634-11.635-30.498-11.635-42.132 0-11.635 11.634-11.635 30.498 0 42.132 11.634 11.635 30.498 11.635 42.132 0Z" fill="#fff"/><path d="M334.835 190.2h-30.776a.544.544 0 0 1-.543-.544V169.45c0-.302.244-.544.543-.544h30.776c.301 0 .543.245.543.544v20.206a.542.542 0 0 1-.543.544Zm-30.23-1.09h29.686v-19.117h-29.686v19.117Z" fill="#0A0A0A"/><path d="M314.997 181.021h-6.583a.544.544 0 0 1-.543-.544v-6.582c0-.301.245-.543.543-.543h6.583c.301 0 .543.244.543.543v6.582a.542.542 0 0 1-.543.544Zm-6.037-1.089h5.494v-5.494h-5.494v5.494Zm22.076 1.089h-6.582a.544.544 0 0 1-.544-.544v-6.582c0-.301.245-.543.544-.543h6.582c.301 0 .543.244.543.543v6.582a.544.544 0 0 1-.543.544Zm-6.037-1.089h5.494v-5.494h-5.494v5.494Zm16.359-9.947H298.1a.544.544 0 0 1-.386-.928l21.63-21.63a.559.559 0 0 1 .77 0l21.63 21.63a.544.544 0 0 1-.386.928Zm-41.944-1.089h40.63l-20.315-20.315-20.315 20.315Z" fill="#0A0A0A"/><path d="M59.152 142.14a7.503 7.503 0 1 0 0-15.007 7.503 7.503 0 1 0 0 15.007Zm258.527 131.156a7.504 7.504 0 1 0 0-15.006 7.504 7.504 0 0 0 0 15.006Z" fill="#8633FF"/><path d="M300.406 262.012a.537.537 0 0 1-.355-.133c-.269-.235-.386-.623-1.376-4.614l-.232-.936a.545.545 0 0 1 1.057-.262l.232.936c.504 2.033.941 3.796 1.099 4.125a.543.543 0 0 1-.425.884Zm.356-.956s.003 0 .003.003c0-.003-.003-.003-.003-.003Zm-3.139-9.615a.545.545 0 0 1-.526-.408 346.92 346.92 0 0 0-1.418-5.268.546.546 0 0 1 1.05-.294c.479 1.722.943 3.45 1.422 5.286a.543.543 0 0 1-.39.664.548.548 0 0 1-.138.02Zm-2.93-10.527a.543.543 0 0 1-.521-.39 286.006 286.006 0 0 0-1.598-5.209.546.546 0 0 1 .353-.685.547.547 0 0 1 .685.354 306.967 306.967 0 0 1 1.605 5.228.543.543 0 0 1-.368.677.471.471 0 0 1-.156.025Zm-3.302-10.408a.546.546 0 0 1-.516-.371 276.704 276.704 0 0 0-1.798-5.14.543.543 0 0 1 1.022-.37 267.085 267.085 0 0 1 1.806 5.162.543.543 0 0 1-.514.719Zm-3.71-10.261a.55.55 0 0 1-.509-.348 229.404 229.404 0 0 0-2.017-5.056.543.543 0 1 1 1.007-.415 235.46 235.46 0 0 1 2.026 5.078.545.545 0 0 1-.507.741Zm-4.162-10.084a.54.54 0 0 1-.498-.326 203.924 203.924 0 0 0-2.261-4.948.547.547 0 0 1 .986-.467 215.793 215.793 0 0 1 2.272 4.975.545.545 0 0 1-.499.766Zm-4.66-9.86a.544.544 0 0 1-.487-.299 184.304 184.304 0 0 0-2.529-4.812.544.544 0 1 1 .956-.521 180.55 180.55 0 0 1 2.544 4.841.543.543 0 0 1-.484.791Zm-5.224-9.569a.543.543 0 0 1-.47-.269 149.456 149.456 0 0 0-2.828-4.626.544.544 0 0 1 .919-.583 156.865 156.865 0 0 1 2.848 4.658.544.544 0 0 1-.469.82Zm-5.849-9.186a.547.547 0 0 1-.45-.234 132.67 132.67 0 0 0-3.178-4.404.545.545 0 0 1 .869-.657 132.038 132.038 0 0 1 3.206 4.441.547.547 0 0 1-.447.854Zm-158.776-6.145a.543.543 0 0 1-.543-.528.548.548 0 0 1 .529-.561 56.355 56.355 0 0 0 5.377-.398.545.545 0 0 1 .133 1.082 57.872 57.872 0 0 1-5.481.408c-.002-.003-.007-.003-.015-.003Zm-5.443-.079h-.03a70.727 70.727 0 0 1-5.464-.519.543.543 0 0 1-.466-.612.542.542 0 0 1 .612-.467c1.793.24 3.604.412 5.38.511a.544.544 0 0 1-.032 1.087Zm16.227-1.307a.544.544 0 0 1-.133-1.071 36.655 36.655 0 0 0 2.304-.662 210.13 210.13 0 0 0 2.846-.954.542.542 0 0 1 .691.339.542.542 0 0 1-.338.691c-.936.321-1.89.64-2.863.958-.761.25-1.561.48-2.376.682a.463.463 0 0 1-.131.017Zm-27.011-.135a.55.55 0 0 1-.114-.013 69.758 69.758 0 0 1-5.318-1.346.545.545 0 0 1 .31-1.045c1.708.504 3.47.951 5.236 1.324a.546.546 0 0 1-.114 1.08Zm168.428-1.038a.54.54 0 0 1-.42-.197 111.369 111.369 0 0 0-3.564-4.098.543.543 0 1 1 .803-.734 110.08 110.08 0 0 1 3.601 4.138.542.542 0 0 1-.072.765.554.554 0 0 1-.348.126ZM82.347 170.79a.576.576 0 0 1-.197-.037 60.68 60.68 0 0 1-5.032-2.216.541.541 0 0 1-.244-.729.54.54 0 0 1 .729-.244 59.472 59.472 0 0 0 4.94 2.174c.281.108.42.424.31.703a.54.54 0 0 1-.506.349Zm47.759-.242a.544.544 0 0 1-.19-1.055 177.452 177.452 0 0 0 5.044-1.988.544.544 0 1 1 .415 1.007c-1.648.68-3.357 1.354-5.076 2.001a.596.596 0 0 1-.193.035Zm10.055-4.152a.545.545 0 0 1-.224-1.043 165.291 165.291 0 0 0 4.902-2.311.545.545 0 1 1 .48.978c-1.631.8-3.29 1.585-4.938 2.326a.488.488 0 0 1-.22.05Zm-67.55-.462a.536.536 0 0 1-.29-.084 48.147 48.147 0 0 1-4.487-3.194.544.544 0 1 1 .682-.849 47.375 47.375 0 0 0 4.384 3.122.543.543 0 0 1-.29 1.005Zm181.222-1.134a.54.54 0 0 1-.38-.156 92.567 92.567 0 0 0-3.982-3.677.544.544 0 1 1 .714-.823 94.81 94.81 0 0 1 4.029 3.722.547.547 0 0 1-.381.934Zm-103.91-3.203a.544.544 0 0 1-.257-1.025 205.465 205.465 0 0 0 4.754-2.614.546.546 0 0 1 .539.949 194.639 194.639 0 0 1-4.78 2.628.558.558 0 0 1-.256.062Zm-85.762-2.495a.543.543 0 0 1-.393-.168 38.883 38.883 0 0 1-3.522-4.243.543.543 0 1 1 .887-.63 37.145 37.145 0 0 0 3.42 4.122c.208.217.2.561-.016.771a.566.566 0 0 1-.376.148Zm181.447-1.443a.537.537 0 0 1-.328-.111 79.06 79.06 0 0 0-4.399-3.127.545.545 0 1 1 .6-.911 80.766 80.766 0 0 1 4.461 3.171.547.547 0 0 1 .103.764.554.554 0 0 1-.437.214Zm-86.211-1.407a.544.544 0 0 1-.276-1.016l2.131-1.257c.867-.511 1.717-1.015 2.557-1.506a.544.544 0 1 1 .55.941c-.837.491-1.687.993-2.554 1.504l-2.131 1.26a.567.567 0 0 1-.277.074Zm77.139-4.567a.55.55 0 0 1-.264-.069 69.597 69.597 0 0 0-4.804-2.448.546.546 0 0 1 .457-.991 72.253 72.253 0 0 1 4.88 2.485.546.546 0 0 1-.269 1.023Zm-67.731-.899a.545.545 0 0 1-.262-1.023 93.124 93.124 0 0 1 4.859-2.512.544.544 0 1 1 .469.983 93.84 93.84 0 0 0-4.801 2.485.576.576 0 0 1-.265.067Zm57.869-3.646a.5.5 0 0 1-.188-.035 65.6 65.6 0 0 0-5.128-1.647.547.547 0 0 1-.38-.669.548.548 0 0 1 .669-.381 66.1 66.1 0 0 1 5.212 1.677.546.546 0 0 1 .323.699.538.538 0 0 1-.508.356Zm-48.041-.99a.544.544 0 0 1-.19-1.055 52.704 52.704 0 0 1 5.231-1.66.546.546 0 0 1 .275 1.055 51.617 51.617 0 0 0-5.126 1.625.518.518 0 0 1-.19.035Zm37.58-1.907a.514.514 0 0 1-.103-.01 65.594 65.594 0 0 0-4.402-.687c-.316-.039-.63-.076-.941-.111a.544.544 0 1 1 .124-1.082c.313.037.63.074.948.114 1.494.183 3.001.417 4.473.699a.542.542 0 0 1 .432.637.537.537 0 0 1-.531.44Zm-27.083-.83a.546.546 0 0 1-.538-.462.542.542 0 0 1 .457-.62 61.366 61.366 0 0 1 5.451-.58.538.538 0 0 1 .578.508.544.544 0 0 1-.509.578c-1.84.116-3.64.307-5.355.568a.303.303 0 0 1-.084.008Zm16.277-.482h-.037a95.56 95.56 0 0 0-5.409-.225.544.544 0 0 1 .005-1.089h.008a95.88 95.88 0 0 1 5.47.227.549.549 0 0 1 .507.581.546.546 0 0 1-.544.506Z" fill="#0A0A0A"/><path d="M234.22 161.963c6.658 0 12.056-5.397 12.056-12.056 0-6.658-5.398-12.055-12.056-12.055-6.658 0-12.056 5.397-12.056 12.055 0 6.659 5.398 12.056 12.056 12.056Z" fill="#C2C2C2"/><path d="m266.959 106.194-5.532-2.319-5.392 10.86c-.793 1.598-.198 3.414 1.329 4.054 1.528.639 3.411-.136 4.203-1.737l5.392-10.858Zm-4.107-5.234-5.532-2.32-5.395 10.861c-.793 1.598-.197 3.413 1.329 4.053 1.529.64 3.411-.136 4.204-1.736l5.394-10.858Z" fill="#EDEDED"/><path d="m257.819 97.671-4.942-2.07-4.817 9.698c-.709 1.427-.178 3.047 1.188 3.621 1.364.57 3.046-.122 3.755-1.549l4.816-9.7Zm12.46 15.312-4.187-4.186-16.944 16.944a2.96 2.96 0 1 0 4.187 4.186l16.944-16.944Zm15.445-14.085-11.683 3.179-.551 20.748c-.18 1.721 1.06 3.127 2.771 3.139 1.712.012 3.248-1.373 3.429-3.095l.985-9.351 5.049-14.62Z" fill="#EDEDED"/><path d="m285.724 98.386 12.278-15.395-17.549-13.577-11.097 13.548-16.458 12.614 17.381 17.413 15.445-14.603Z" fill="#EDEDED"/><path d="m297.998 82.991-17.549-13.577-4.332 4.841 13.439 19.4 8.442-10.664Z" fill="#424242"/><path d="M256.225 118.48a.544.544 0 0 1-.366-.141c-1.536-1.386-.615-3.238-.313-3.846l4.789-9.69a.545.545 0 0 1 .976.482l-4.792 9.692c-.751 1.514-.413 2.122.067 2.554a.543.543 0 0 1 .039.768.531.531 0 0 1-.4.181Z" fill="#0A0A0A"/><path d="M254.376 114.324c-.452 0-.904-.084-1.331-.264a3.234 3.234 0 0 1-1.798-1.872c-.344-.922-.275-1.989.192-2.925l4.814-9.665a.546.546 0 0 1 .976.487l-4.814 9.665c-.331.667-.385 1.418-.146 2.06.213.57.637 1.015 1.198 1.247 1.27.534 2.841-.131 3.507-1.474l3.365-6.773a.541.541 0 0 1 .728-.245c.269.134.381.46.245.729l-3.364 6.775c-.699 1.403-2.137 2.255-3.572 2.255Z" fill="#0A0A0A"/><path d="M250.247 109.661c-.41 0-.823-.077-1.211-.24a2.947 2.947 0 0 1-1.637-1.707c-.311-.839-.25-1.808.173-2.657l4.816-9.7a.541.541 0 0 1 .729-.244.54.54 0 0 1 .244.728l-4.816 9.7c-.289.583-.336 1.237-.129 1.793.183.494.554.877 1.038 1.082 1.101.459 2.472-.116 3.055-1.289l3.74-7.529a.54.54 0 0 1 .728-.244.54.54 0 0 1 .245.728l-3.74 7.529c-.627 1.274-1.934 2.05-3.235 2.05Zm.996 21.682a3.486 3.486 0 0 1-2.48-1.028 3.51 3.51 0 0 1 0-4.957l16.571-17.299a.545.545 0 1 1 .787.753l-16.578 17.309a2.42 2.42 0 0 0 1.702 4.135c.645 0 1.252-.252 1.709-.709l16.944-16.944a.547.547 0 0 1 .771 0 .547.547 0 0 1 0 .771l-16.944 16.944a3.51 3.51 0 0 1-2.482 1.025Zm25.04-4.828h-.027c-.978-.008-1.86-.398-2.487-1.099-.635-.712-.926-1.65-.823-2.643l.344-13.042c.007-.301.281-.531.558-.531.301.008.538.26.531.559l-.346 13.083c-.074.729.121 1.368.548 1.847.42.47 1.018.732 1.682.736h.02c1.43 0 2.712-1.165 2.863-2.608l.985-9.351a.63.63 0 0 1 .025-.116l5.049-15.136a.512.512 0 0 1 .094-.17l10.274-12.679a.543.543 0 1 1 .845.684l-10.213 12.6-4.997 14.985-.978 9.292c-.21 1.988-1.976 3.589-3.947 3.589Z" fill="#0A0A0A"/><path d="M270.276 113.534a.54.54 0 0 1-.403-.178.542.542 0 0 1 .035-.768l6.977-6.367a.543.543 0 1 1 .734.802l-6.978 6.368a.526.526 0 0 1-.365.143Zm-17.38-17.414a.544.544 0 0 1-.331-.976l16.408-12.574 8.936-10.833a.545.545 0 0 1 .84.692l-8.976 10.882a.542.542 0 0 1-.089.087l-16.457 12.611a.551.551 0 0 1-.331.111Z" fill="#0A0A0A"/><path d="m273.559 72.316 22.056 16.818 32.295-40.878-16.784-17.717-37.567 41.777Z" fill="#8633FF"/><path d="M295.616 89.68a.533.533 0 0 1-.338-.12.543.543 0 0 1-.089-.765l32.297-40.877a.544.544 0 1 1 .854.676l-32.297 40.878a.537.537 0 0 1-.427.207Z" fill="#0A0A0A"/><path d="M439.119 100.648h-52.662v28.595h52.662v-28.595Z" fill="#8633FF"/><path d="M405.562 129.793h-19.105a.543.543 0 0 1-.543-.543v-28.597c0-.302.245-.544.543-.544h45.959a.544.544 0 0 1 0 1.087h-45.413v27.505h18.562c.301 0 .543.245.543.544a.55.55 0 0 1-.546.548Z" fill="#0A0A0A"/><path d="M378.679 105.426c-2.272 0-3.591-3.137-8.721-3.137h-12.367a13.173 13.173 0 0 0-9.67 4.226l-1.304 1.408a3.603 3.603 0 0 0-.618 3.974l.022.015-1.467 1.586a3.597 3.597 0 0 0-.385 4.391l-.879.951a3.6 3.6 0 0 0-.279 4.55l.874 1.21a3.298 3.298 0 0 0 .042 3.794 3.305 3.305 0 0 0 5.145.274l1.563-1.746a3.943 3.943 0 0 1 2.935-1.312h32.887v-20.189h-7.778v.005Z" fill="#EDEDED"/><path d="m379.266 105.43 7.195 20.187V105.43h-7.195Z" fill="#424242"/><path d="M344.173 118.433a.551.551 0 0 1-.46-.25 4.144 4.144 0 0 1 .445-5.056l2.304-2.487a10.386 10.386 0 0 1 7.598-3.32h6.338a.544.544 0 0 1 0 1.087h-6.338a9.28 9.28 0 0 0-6.797 2.971l-2.305 2.488a3.054 3.054 0 0 0-.328 3.727.546.546 0 0 1-.457.84Z" fill="#0A0A0A"/><path d="M343.895 125.152a.543.543 0 0 1-.442-.228l-.882-1.222a4.155 4.155 0 0 1 .321-5.236l2.764-2.987a8.843 8.843 0 0 1 6.464-2.823h8.339a.544.544 0 0 1 0 1.087h-8.339a7.738 7.738 0 0 0-5.664 2.475l-2.761 2.986a3.064 3.064 0 0 0-.237 3.861l.882 1.222a.545.545 0 0 1-.445.865Z" fill="#0A0A0A"/><path d="M387.004 126.158h-20.458a.544.544 0 0 1 0-1.087h19.369v-19.1h-7.234c-1.072 0-1.907-.554-2.873-1.193-1.306-.867-2.934-1.944-5.849-1.944h-12.367a12.667 12.667 0 0 0-9.269 4.051l-1.304 1.407a3.043 3.043 0 0 0-.524 3.374.545.545 0 0 1-.986.462 4.126 4.126 0 0 1 .712-4.577l1.301-1.407a13.766 13.766 0 0 1 10.07-4.402h12.367c3.243 0 5.098 1.228 6.452 2.124.852.566 1.526 1.013 2.27 1.013h8.321v21.279h.002Z" fill="#0A0A0A"/><path d="M346.612 130.31a3.826 3.826 0 0 1-3.127-1.6 3.861 3.861 0 0 1 .299-4.866l2.882-3.115a8.979 8.979 0 0 1 6.57-2.87h6.938a.545.545 0 0 1 0 1.087h-6.938a7.89 7.89 0 0 0-5.772 2.522l-2.883 3.115a2.773 2.773 0 0 0-.215 3.49 2.76 2.76 0 0 0 4.298.229l1.564-1.746a4.49 4.49 0 0 1 3.339-1.492h19.814a9.845 9.845 0 0 0 8.151-4.325.545.545 0 0 1 .901.61 10.932 10.932 0 0 1-9.052 4.802h-19.814c-.963 0-1.885.412-2.529 1.129l-1.564 1.744a3.81 3.81 0 0 1-2.862 1.286Z" fill="#0A0A0A"/><path d="M383.534 397.631h-98.659v-98.662h75.076l23.583 64.268v34.394Z" fill="#fff"/><path d="M383.533 398.178h-98.661a.543.543 0 0 1-.544-.543v-98.662c0-.301.245-.543.544-.543h75.076c.23 0 .432.143.511.355l23.586 64.268c.022.06.034.124.034.188v34.394a.544.544 0 0 1-.546.543Zm-98.116-1.089h97.573v-33.752l-23.42-63.818h-74.15v97.57h-.003Z" fill="#0A0A0A"/><path d="m380.777 355.729-65.523-7.425v-34.515h49.609l15.914 41.94Z" fill="#FFCA00"/><path d="M380.775 356.271c-.02 0-.042 0-.062-.005l-65.014-7.422a.547.547 0 0 1-.484-.541v-34.517c0-.302.244-.544.543-.544h49.612c.227 0 .432.143.511.356l15.405 41.94a.542.542 0 0 1-.084.523.54.54 0 0 1-.427.21Zm-64.471-8.452 63.656 7.267-14.968-40.755h-48.685v33.488h-.003Z" fill="#0A0A0A"/><path d="M273.747 253.336H1.52v144.195h272.227V253.336Z" fill="#fff"/><path d="M273.747 398.079H1.52a.543.543 0 0 1-.543-.543V253.34c0-.301.244-.543.543-.543h272.227c.302 0 .544.244.544.543v144.196a.543.543 0 0 1-.544.543ZM2.066 396.99h271.138V253.884H2.066V396.99Z" fill="#0A0A0A"/><path d="M384.715 397.539H13.801v22.622h370.914v-22.622Z" fill="#0A0A0A"/><path d="M337.878 397.637h-53.003v-15.981h16.84a48.895 48.895 0 0 1 36.163 15.981Z" fill="#0A0A0A"/><path d="M364.864 398.373h-64.465a.545.545 0 0 1-.544-.544v-89.622c0-.301.245-.543.544-.543h45.296c.227 0 .432.143.511.356l19.17 52.234a.544.544 0 0 1 .034.188v37.387a.544.544 0 0 1-.546.544Zm-63.919-1.089h63.376v-36.748l-19.004-51.785h-44.372v88.533Z" fill="#0A0A0A"/><path d="M356.267 311.961h-9.201v29.913h9.201v-29.913Zm0 31.445h-9.201v10.908h9.201v-10.908Zm27.264 26.289h-5.254v19.466h5.254v-19.466Zm-55.756-9.014h-18.579a.544.544 0 1 1 0-1.087h18.579a.543.543 0 1 1 0 1.087Z" fill="#0A0A0A"/><path d="M309.321 451.455c13.938 0 25.236-11.298 25.236-25.235s-11.298-25.236-25.236-25.236c-13.937 0-25.235 11.299-25.235 25.236 0 13.937 11.298 25.235 25.235 25.235Z" fill="#fff"/><path d="M309.322 452.005c-14.215 0-25.779-11.564-25.779-25.778 0-14.215 11.564-25.782 25.779-25.782 14.214 0 25.781 11.565 25.781 25.782 0 14.214-11.564 25.778-25.781 25.778Zm0-50.47c-13.615 0-24.69 11.077-24.69 24.692 0 13.614 11.075 24.689 24.69 24.689 13.614 0 24.692-11.075 24.692-24.689 0-13.617-11.078-24.692-24.692-24.692Z" fill="#0A0A0A"/><path d="M309.321 437.024c5.965 0 10.801-4.836 10.801-10.801s-4.836-10.801-10.801-10.801c-5.966 0-10.801 4.836-10.801 10.801s4.835 10.801 10.801 10.801Z" fill="#fff"/><path d="M309.32 437.569c-6.257 0-11.347-5.091-11.347-11.347 0-6.256 5.09-11.347 11.347-11.347 6.256 0 11.347 5.091 11.347 11.347 0 6.259-5.089 11.347-11.347 11.347Zm0-21.602c-5.657 0-10.258 4.601-10.258 10.257 0 5.657 4.601 10.258 10.258 10.258 5.656 0 10.257-4.601 10.257-10.258 0-5.656-4.601-10.257-10.257-10.257Z" fill="#0A0A0A"/><path d="M89.2 451.455c13.937 0 25.236-11.298 25.236-25.235s-11.299-25.236-25.236-25.236c-13.937 0-25.235 11.299-25.235 25.236 0 13.937 11.298 25.235 25.235 25.235Z" fill="#fff"/><path d="M89.2 452.005c-14.214 0-25.778-11.564-25.778-25.778 0-14.215 11.564-25.782 25.779-25.782 14.214 0 25.779 11.565 25.779 25.782 0 14.214-11.565 25.778-25.78 25.778Zm0-50.47c-13.614 0-24.689 11.077-24.689 24.692 0 13.614 11.075 24.689 24.69 24.689 13.614 0 24.689-11.075 24.689-24.689 0-13.617-11.075-24.692-24.69-24.692Z" fill="#0A0A0A"/><path d="M89.2 437.024c5.965 0 10.801-4.836 10.801-10.801s-4.836-10.801-10.802-10.801c-5.965 0-10.8 4.836-10.8 10.801s4.835 10.801 10.8 10.801Z" fill="#fff"/><path d="M89.198 437.569c-6.256 0-11.346-5.091-11.346-11.347 0-6.256 5.09-11.347 11.346-11.347 6.257 0 11.347 5.091 11.347 11.347-.002 6.259-5.09 11.347-11.347 11.347Zm0-21.602c-5.656 0-10.257 4.601-10.257 10.257 0 5.657 4.601 10.258 10.257 10.258 5.657 0 10.258-4.601 10.258-10.258 0-5.656-4.601-10.257-10.258-10.257Z" fill="#0A0A0A"/><path d="M89.822 305.469H8.727v81.095h81.095v-81.095Z" fill="#FFCA00"/><path d="M89.823 387.115H8.727a.544.544 0 0 1-.543-.544v-81.098c0-.301.244-.543.543-.543h81.096c.301 0 .543.244.543.543v81.096a.543.543 0 0 1-.543.546Zm-80.553-1.09h80.007v-80.006H9.27v80.006Z" fill="#0A0A0A"/><path d="M14.5 365.576a.544.544 0 0 1-.543-.544v-53.778c0-.301.245-.543.543-.543h40.426a.543.543 0 1 1 0 1.087h-39.88v53.232a.546.546 0 0 1-.546.546Zm69.55 15.761H39.875a.544.544 0 0 1 0-1.087h43.632v-49.003a.543.543 0 1 1 1.087 0v49.547a.542.542 0 0 1-.544.543Zm-69.547-6.465a.546.546 0 0 1-.39-.926l62.03-63.08a.545.545 0 0 1 .778.763l-62.028 63.08a.54.54 0 0 1-.39.163Zm7.977 6.461a.546.546 0 0 1-.39-.926l61.563-62.603a.545.545 0 0 1 .778.763L22.87 381.17a.54.54 0 0 1-.39.163Z" fill="#0A0A0A"/><path d="M22.965 356.572a.544.544 0 0 1-.543-.543v-40.431a.543.543 0 0 1 1.087 0v40.431a.54.54 0 0 1-.544.543Zm10.575-8.65a.543.543 0 0 1-.544-.543v-31.781a.543.543 0 0 1 1.087 0v31.781a.543.543 0 0 1-.544.543Zm10.57-9.613a.543.543 0 0 1-.544-.543v-22.168a.543.543 0 0 1 1.087 0v22.168a.543.543 0 0 1-.543.543Zm10.574-9.61a.544.544 0 0 1-.543-.544v-12.557a.543.543 0 0 1 1.086 0v12.557a.542.542 0 0 1-.543.544Zm21.625 48.537a.543.543 0 0 1-.543-.543v-40.431a.543.543 0 0 1 1.086 0v40.431a.543.543 0 0 1-.543.543Zm-10.574.007a.544.544 0 0 1-.544-.544v-31.781a.543.543 0 0 1 1.087 0v31.781a.542.542 0 0 1-.543.544Zm-10.571-.012a.543.543 0 0 1-.543-.543V354.52a.543.543 0 0 1 1.087 0v22.168a.543.543 0 0 1-.544.543Zm-10.574.007a.544.544 0 0 1-.543-.544v-12.557a.543.543 0 0 1 1.087 0v12.557a.542.542 0 0 1-.544.544Z" fill="#FFAC00"/><path d="m45.384 327.983-20.232-7.444-5.132 13.95 20.232 7.444 5.132-13.95Z" fill="#fff"/><path d="M40.253 342.477a.5.5 0 0 1-.188-.035l-20.231-7.444a.546.546 0 0 1-.324-.699l5.133-13.951a.547.547 0 0 1 .699-.323l20.23 7.444a.546.546 0 0 1 .324.699l-5.132 13.948a.542.542 0 0 1-.511.361Zm-19.533-8.309 19.21 7.066 4.754-12.925-19.21-7.066-4.754 12.925Z" fill="#0A0A0A"/><path d="M151.217 333.336H97.984v53.232h53.233v-53.232Z" fill="#FFCA00"/><path d="M151.216 387.116H97.981a.544.544 0 0 1-.543-.543V333.34c0-.301.244-.543.543-.543h53.232c.301 0 .544.244.544.543v53.233a.54.54 0 0 1-.541.543Zm-52.69-1.089h52.144v-52.143H98.527v52.143Z" fill="#0A0A0A"/><path d="M101.778 372.973a.543.543 0 0 1-.544-.543v-35.301c0-.301.245-.543.544-.543h26.534a.543.543 0 1 1 0 1.087h-25.991v34.754a.542.542 0 0 1-.543.546Zm45.645 10.351h-28.997a.543.543 0 1 1 0-1.086h28.452v-31.984a.543.543 0 1 1 1.086 0v32.525a.54.54 0 0 1-.541.545Zm-45.647-4.243a.543.543 0 0 1-.39-.926l40.717-41.406a.546.546 0 0 1 .778.763l-40.717 41.406a.539.539 0 0 1-.388.163Zm5.239 4.244a.544.544 0 0 1-.391-.926l40.411-41.095a.546.546 0 0 1 .778.763l-40.411 41.095a.542.542 0 0 1-.387.163Z" fill="#0A0A0A"/><path d="M107.329 367.064a.544.544 0 0 1-.544-.544v-26.539a.544.544 0 0 1 1.087 0v26.539a.542.542 0 0 1-.543.544Zm6.941-5.679a.543.543 0 0 1-.543-.543v-20.861a.543.543 0 1 1 1.086 0v20.861a.543.543 0 0 1-.543.543Zm6.941-6.308a.543.543 0 0 1-.543-.543v-14.553a.543.543 0 1 1 1.087 0v14.553a.545.545 0 0 1-.544.543Zm6.934-6.311a.543.543 0 0 1-.543-.543v-8.242a.543.543 0 1 1 1.086 0v8.242a.54.54 0 0 1-.543.543Zm14.199 31.868a.543.543 0 0 1-.543-.543v-26.54a.543.543 0 1 1 1.087 0v26.54a.543.543 0 0 1-.544.543Zm-6.937.001a.543.543 0 0 1-.544-.543v-20.861a.544.544 0 0 1 1.087 0v20.861a.54.54 0 0 1-.543.543Zm-6.942-.006a.543.543 0 0 1-.543-.543v-14.55a.543.543 0 1 1 1.087 0v14.55a.542.542 0 0 1-.544.543Zm-6.941.005a.545.545 0 0 1-.544-.544v-8.242a.544.544 0 0 1 1.087 0v8.242a.542.542 0 0 1-.543.544Z" fill="#FFAC00"/><path d="m122.046 348.128-13.28-4.886-3.369 9.156 13.28 4.887 3.369-9.157Z" fill="#fff"/><path d="M118.675 357.827a.5.5 0 0 1-.188-.035l-13.278-4.885a.546.546 0 0 1-.324-.699l3.369-9.156a.545.545 0 0 1 .699-.324l13.281 4.885a.547.547 0 0 1 .323.699l-3.369 9.157a.549.549 0 0 1-.513.358Zm-12.58-5.753 12.259 4.51 2.993-8.133-12.258-4.51-2.994 8.133Z" fill="#0A0A0A"/><path d="M156.491 387.961h105.474V308.11H156.491v79.851Z" fill="#FFCA00"/><path d="M261.967 388.505H156.493a.543.543 0 0 1-.544-.543v-79.848c0-.302.245-.544.544-.544h105.474c.301 0 .543.245.543.544v79.848a.543.543 0 0 1-.543.543Zm-104.931-1.089h104.385v-78.759H157.036v78.759Z" fill="#0A0A0A"/><path d="M261.967 321.217H156.493a.544.544 0 0 1-.544-.544v-12.559c0-.302.245-.544.544-.544h105.474c.301 0 .543.245.543.544v12.559a.542.542 0 0 1-.543.544Zm-104.931-1.089h104.385v-11.471H157.036v11.471Zm73.866 49.098a6.785 6.785 0 0 0 6.785-6.785v-6.785h-13.57v6.785a6.783 6.783 0 0 0 6.785 6.785Z" fill="#0A0A0A"/><path d="M230.903 378.188a.543.543 0 0 1-.544-.543V362.45a.544.544 0 1 1 1.087 0v15.195a.542.542 0 0 1-.543.543Z" fill="#0A0A0A"/><path d="M235.833 378.181h-9.868a.544.544 0 0 1 0-1.087h9.87a.544.544 0 1 1-.002 1.087Z" fill="#0A0A0A"/><path d="M204.376 343.328h8.749v-37.01h-8.749v37.01Z" fill="#fff"/><path d="M213.128 343.87h-8.749a.544.544 0 0 1-.543-.544v-37.009c0-.301.244-.544.543-.544h8.749c.301 0 .543.245.543.544v37.009a.542.542 0 0 1-.543.544Zm-8.205-1.089h7.659V306.86h-7.659v35.921Z" fill="#0A0A0A"/><path d="M155.516 327.33v8.748h107.558v-8.748H155.516Z" fill="#fff"/><path d="M263.075 336.624H155.516a.543.543 0 0 1-.543-.543v-8.749c0-.301.244-.543.543-.543h107.559c.301 0 .543.245.543.543v8.749a.543.543 0 0 1-.543.543Zm-107.016-1.089h106.47v-7.659h-106.47v7.659Zm84.593 30.295h18.046a8.353 8.353 0 0 0-8.354-8.353h-1.336a8.355 8.355 0 0 0-8.356 8.353Z" fill="#0A0A0A"/><path d="M251.243 378.194a2.116 2.116 0 0 1-2.114-2.114v-20.412a.543.543 0 1 1 1.087 0v20.412a1.025 1.025 0 0 0 2.05 0v-1.857a.543.543 0 1 1 1.087 0v1.857a2.11 2.11 0 0 1-2.11 2.114Z" fill="#0A0A0A"/><path d="M151.217 274.953H97.984v53.232h53.233v-53.232Z" fill="#FFCA00"/><path d="M151.216 328.733H97.981a.543.543 0 0 1-.543-.543v-53.233c0-.301.244-.543.543-.543h53.232c.301 0 .544.245.544.543v53.233a.54.54 0 0 1-.541.543Zm-52.69-1.089h52.144v-52.143H98.527v52.143Z" fill="#0A0A0A"/><path d="M101.778 314.59a.543.543 0 0 1-.544-.543v-35.3c0-.302.245-.544.544-.544h26.534a.544.544 0 1 1 0 1.087h-25.991v34.754a.544.544 0 0 1-.543.546Zm45.645 10.347h-28.997a.544.544 0 0 1 0-1.087h28.452v-31.978a.543.543 0 1 1 1.086 0v32.524a.537.537 0 0 1-.541.541Zm-45.647-4.246a.544.544 0 0 1-.39-.926l40.717-41.407a.546.546 0 0 1 .778.764l-40.717 41.406a.543.543 0 0 1-.388.163Zm5.239 4.251a.544.544 0 0 1-.391-.926l40.411-41.095a.546.546 0 0 1 .778.763l-40.411 41.095a.538.538 0 0 1-.387.163Z" fill="#0A0A0A"/><path d="M107.329 308.681a.543.543 0 0 1-.544-.543v-26.54a.544.544 0 0 1 1.087 0v26.54a.54.54 0 0 1-.543.543Zm6.941-5.678a.544.544 0 0 1-.543-.544v-20.861a.543.543 0 1 1 1.086 0v20.861a.542.542 0 0 1-.543.544Zm6.941-6.309a.543.543 0 0 1-.543-.543v-14.553a.543.543 0 1 1 1.087 0v14.553a.544.544 0 0 1-.544.543Zm6.934-6.31a.544.544 0 0 1-.543-.544v-8.242a.543.543 0 1 1 1.086 0v8.242a.542.542 0 0 1-.543.544Zm14.199 31.86a.544.544 0 0 1-.543-.544v-26.539a.543.543 0 1 1 1.087 0V321.7a.543.543 0 0 1-.544.544Zm-6.937.001a.544.544 0 0 1-.544-.544V300.84a.544.544 0 0 1 1.087 0v20.861a.54.54 0 0 1-.543.544Zm-6.942-.004a.543.543 0 0 1-.543-.543v-14.553a.543.543 0 1 1 1.087 0v14.553a.54.54 0 0 1-.544.543Zm-6.941.002a.544.544 0 0 1-.544-.543v-8.243a.544.544 0 0 1 1.087 0v8.243a.54.54 0 0 1-.543.543Z" fill="#FFAC00"/><path d="m122.046 289.738-13.28-4.886-3.369 9.156 13.28 4.886 3.369-9.156Z" fill="#fff"/><path d="M118.675 299.436a.557.557 0 0 1-.188-.034l-13.278-4.886a.545.545 0 0 1-.324-.699l3.369-9.156a.54.54 0 0 1 .282-.306.553.553 0 0 1 .417-.018l13.281 4.886a.54.54 0 0 1 .306.284.553.553 0 0 1 .017.417l-3.369 9.156a.539.539 0 0 1-.513.356Zm-12.58-5.752 12.259 4.51 2.993-8.134-12.258-4.51-2.994 8.134Z" fill="#0A0A0A"/></svg>